<svg xmlns="http://www.w3.org/2000/svg" xmlns:xlink="http://www.w3.org/1999/xlink" width="1920" height="921" viewBox="0 0 1920 921">
  <defs>
    <clipPath id="clip-Web_1920_1">
      <rect width="1920" height="921"/>
    </clipPath>
  </defs>
  <g id="Web_1920_1" data-name="Web 1920 – 1" clip-path="url(#clip-Web_1920_1)">
    <rect width="1920" height="921" fill="#2e2b2b"/>
    <path id="Path_1" data-name="Path 1" d="M-255.417-40.492,182.529,32.015,403,237H0Z" transform="translate(1085 84)" fill="#fff"/>
    <path id="Path_2" data-name="Path 2" d="M-280.888,0h153.5L55.643,196.834H-127.392Z" transform="translate(942.257 136.115)" fill="#fff"/>
    <path id="Path_3" data-name="Path 3" d="M313.465,23.517l5.723,7.337L168.45,220.517h-14.5Z" transform="translate(342 118.432)" fill="#fff"/>
    <path id="Path_4" data-name="Path 4" d="M320.929,21.638l3.7,5.084L252.06,106.684h-6.933Z" transform="translate(507 26.432)" fill="#fff"/>
    <path id="Path_5" data-name="Path 5" d="M0,0H36V112.156L0,156.621Z" transform="translate(528 133)" fill="#fff"/>
    <rect id="Rectangle_1" data-name="Rectangle 1" width="28" height="38" transform="translate(668 240)" fill="#fff"/>
    <rect id="Rectangle_2" data-name="Rectangle 2" width="28" height="38" transform="translate(633 240)" fill="#fff"/>
    <rect id="Rectangle_3" data-name="Rectangle 3" width="28" height="38" transform="translate(668 283)" fill="#fff"/>
    <rect id="Rectangle_4" data-name="Rectangle 4" width="28" height="38" transform="translate(633 283)" fill="#fff"/>
    <path id="Path_6" data-name="Path 6" d="M373.83,159.082C584.743,132.272,665.114,54.534,634.69,87.063c-6.964,3.6-11.841,6.368-15.536,8.253-5.833,2.976,10.357-5.664-9.71,5.664-20.876,11.652-4.043,1.575-11.5,6.21C548.666,137.816,447.084,175,317.5,175,142.15,175,0,135.825,0,87.5c0-2.757,1.919-27.163,21.054-38.394,41.632-24.435,122.489-42.589,138.612-33,5.08,3.02-56.413,5.243-92.408,18.482C33.15,47.129,24.317,70.344,34.256,87.5c15.633,26.986,59.271,43.394,71.286,47.413,37.8,12.647,84.488,14.522,97.689,17.162s127.05,9.129,170.6,7.007C391.352,158.228,273.2,162.635,373.83,159.082Z" transform="translate(117 240)" fill="#fff"/>
    <rect id="Rectangle_5" data-name="Rectangle 5" width="1731" height="18" transform="translate(69 813)" fill="#fff"/>
    <text id="DAMJAN-MONT" transform="translate(54 710)" fill="#fff" font-size="226" font-family="SegoeUI-Bold, Segoe UI" font-weight="700"><tspan x="0" y="0">DAMJAN-MONT</tspan></text>
    <path id="Path_7" data-name="Path 7" d="M836.352,96.174c91.521,0,195-7.131,279,0,87.5,7.427,159.638,22.266,238.717,22.31,79.044.044,158.028-12.7,256.192-35.006,95.8-28.015,124.808-33.759,96.487-22.535-20.47,9.018-61.179,27.451-136.017,43.179-47.816,10.049-94.87,24.8-141.078,28.854-127.39,11.186-262.819-27.379-492.969-8.965-4.431,0-132.24,6.629-136.227,6.621-49.8,7.571-65.964,10.294-129.687,15.469-19.732,4.383-186.061,13.4-205.508,12.867-49.662-1.362,118.681-4.421,0,0C176.209,141.959-15.76,101.258-15.76,68.715c0-27.007,3.949,18.71,214.1,42.768a2315.009,2315.009,0,0,0,299.425,13.865c40.654-.8,79.419-3.356,122.268-6.865,12.939-1.06,53.08-10.449,135.435-15.445S689.339,109.668,836.352,96.174Z" transform="matrix(1, -0.017, 0.017, 1, 94.167, 325.83)" fill="#fff"/>
    <path id="Path_8" data-name="Path 8" d="M468.5,0c70.9,0,175.19-22.039,235.748-19.226,50.17,2.33,56.242,0,100.766,5.073,28.121,1.957-4.666-1.041,54.7,5.989C908.926-2.7,943.3,18.5,943.3,27.768c0,5.239,16.341-.084,0,4.687-32.862,9.595-16.221,19.682-24.215,0-2.695-6.642,14.841-17.966-79.675-24.966-10.077-2.13,13.611,1.345,0,0-17.753-1.754-137.577-16.989-210.85,0-26.84,6.223,92.262-8.965,0-1.6-76.937,5.6-155.255,16.834-172.63,16.834-84.61,0-150.277-13.11-183.5-15.232C204.741,3.164,214.1,7.176,53.29,0,1.806-2.539-61.977,14.937,0,0,20.464-4.932,142.7-12.017,168.416-14.153,249.592-20.9,354.134,0,468.5,0Z" transform="translate(967 462)" fill="#fff"/>
    <ellipse id="Ellipse_1" data-name="Ellipse 1" cx="39.5" cy="6" rx="39.5" ry="6" transform="translate(1589 465)" fill="#2e2b2b"/>
    <ellipse id="Ellipse_2" data-name="Ellipse 2" cx="110" cy="32" rx="110" ry="32" transform="translate(1715 474)" fill="#2e2b2b"/>
  </g>
</svg>
